<svg width="171" height="60" viewBox="0 0 171 60" fill="none"
    xmlns="http://www.w3.org/2000/svg">
    <g clip-path="url(#clip0_185_6637)">
        <path d="M50.7485 38.2961V21.7036H58.4511C62.0742 21.7036 63.887 23.338 63.887 25.7345C63.887 27.7976 62.5507 29.1237 60.6673 29.6226C62.8129 30.0011 64.4341 31.5428 64.4341 33.7011C64.4341 36.6641 61.8599 38.3011 58.5696 38.3011H50.7485V38.2961ZM53.8472 28.4118H58.02C59.6891 28.4118 60.7379 27.7249 60.7379 26.3261C60.7379 24.9273 59.6891 24.3583 58.02 24.3583H53.8472V28.4118ZM53.8472 35.6414H58.1158C59.9513 35.6414 61.1918 34.8818 61.1918 33.3176C61.1918 31.7533 59.9513 30.9938 58.1158 30.9938H53.8472V35.6389V35.6414Z" fill="white"/>
        <path d="M67.8379 38.2961V21.7036H80.0939V24.3583H70.9391V28.4118H77.8071V30.9963H70.9391V35.6439H80.0939V38.2986H67.8379V38.2961Z" fill="white"/>
        <path d="M83.46 38.2961V21.7036H89.564C94.3318 21.7036 98.0532 24.8095 98.0532 29.9058C98.0532 35.0021 94.357 38.2986 89.5161 38.2986H83.46V38.2961ZM86.5586 35.6414H89.2539C93.0459 35.6414 94.8335 33.6986 94.8335 29.9509C94.8335 26.5843 93.0686 24.3558 89.4203 24.3558H86.5586V35.6389V35.6414Z" fill="white"/>
        <path d="M101.343 38.2961V21.7036H109.116C112.646 21.7036 114.671 23.5536 114.671 26.1356C114.671 28.9332 112.644 30.2844 110.546 30.6879C112.669 30.9487 113.811 31.9689 114.217 34.2426L114.981 38.2961H111.643L111.07 34.5033C110.76 32.5129 109.782 31.7533 107.636 31.7533H104.442V38.2961H101.343ZM104.442 29.1713H108.567C110.213 29.1713 111.451 28.4118 111.451 26.7523C111.451 25.0928 110.211 24.3583 108.567 24.3583H104.442V29.1713Z" fill="white"/>
        <path d="M117.147 30.0237C117.147 24.9975 120.629 21.3477 125.85 21.3477C131.072 21.3477 134.529 24.9975 134.529 30.0237C134.529 35.0498 131.12 38.652 125.85 38.652C120.581 38.652 117.147 35.0974 117.147 30.0237ZM131.261 30.0237C131.261 26.5392 129.259 23.9798 125.848 23.9798C122.437 23.9798 120.412 26.5392 120.412 30.0237C120.412 33.5081 122.414 36.0224 125.848 36.0224C129.282 36.0224 131.261 33.463 131.261 30.0237Z" fill="white"/>
        <path d="M136.826 29.9284C136.826 25.0677 140.26 21.3477 145.29 21.3477C149.415 21.3477 152.037 23.694 152.823 26.3738L149.939 27.4642C149.319 25.6869 147.985 23.9798 145.265 23.9798C142.093 23.9798 140.091 26.1833 140.091 29.9058C140.091 33.6284 142.07 35.9973 145.265 35.9973C147.96 35.9973 149.341 34.4331 150.01 32.4402L152.846 33.5557C151.797 36.5413 149.316 38.652 145.265 38.652C140.043 38.652 136.823 34.8818 136.823 29.9284H136.826Z" fill="white"/>
        <path d="M166.733 38.2961L161.035 30.5902L158.912 32.7711V38.2935H155.813V21.7036H158.912V28.9808L165.541 21.7036H169.713L163.155 28.4118L170.666 38.2961H166.733Z" fill="white"/>
        <path d="M21.2039 14.6547C28.8132 14.6547 35.1341 20.1295 36.4049 27.3315H39.1052C37.8067 18.658 30.2882 12 21.2039 12C12.1197 12 4.6012 18.658 3.30273 27.3315H6.00304C7.27378 20.1295 13.5947 14.6547 21.2039 14.6547Z" fill="white"/>
        <path d="M22.8226 21.7036H15.1226V27.3314H18.2212V24.3583H22.394C24.0631 24.3583 25.1119 24.9273 25.1119 26.3261C25.1119 26.7172 25.0262 27.0531 24.8724 27.3314H27.9408C28.1451 26.8601 28.2585 26.3286 28.2585 25.732C28.2585 23.338 26.4457 21.7036 22.8226 21.7036Z" fill="white"/>
        <path d="M0 30.9962H3.12893C3.64832 40.4744 11.5425 47.9998 21.2041 47.9998C30.8657 47.9998 38.7599 40.4744 39.2793 30.9962H42.4082V28.7075H0V30.9962ZM18.2214 30.9962H22.4925C24.3255 30.9962 25.566 31.7558 25.566 33.32C25.566 34.8842 24.3255 35.6438 22.49 35.6438H18.2239V30.9987L18.2214 30.9962ZM15.1227 30.9962V38.296H22.9413C26.2316 38.296 28.8058 36.6616 28.8058 33.6985C28.8058 32.6206 28.4024 31.6981 27.7292 30.9962H36.6017C36.0848 39.0079 29.3908 45.3451 21.2041 45.3451C13.0175 45.3451 6.32342 39.0054 5.80655 30.9962H15.1253H15.1227Z" fill="white"/>
    </g>
    <defs>
        <clipPath id="clip0_185_6637">
            <rect width="170.667" height="36" fill="white" transform="translate(0 12)"/>
        </clipPath>
    </defs>
</svg>
    